<svg width="500" height="500" viewBox="0 0 500 500" fill="none" xmlns="http://www.w3.org/2000/svg">
<rect width="500" height="500" rx="250" fill="black"/>
<path d="M122.888 335.774L77.222 182.264C76.018 178.308 74.728 175.47 73.352 173.75C71.976 171.858 69.568 170.138 66.128 168.59L63.032 167.3V164.72H131.402V167.3L125.984 169.364C122.028 170.912 119.362 172.804 117.986 175.04C116.61 177.276 116.524 180.372 117.728 184.328L145.85 291.656L176.294 201.614L170.36 183.296C169.156 179.684 168.038 176.932 167.006 175.04C165.974 173.148 164.254 171.6 161.846 170.396L156.17 167.3V164.72H220.928V167.3L212.93 170.396C209.49 171.6 207.512 173.406 206.996 175.814C206.652 178.05 207.082 180.974 208.286 184.586L241.052 294.236L272.012 186.65C273.216 182.522 273.646 178.91 273.302 175.814C272.958 172.718 270.808 170.482 266.852 169.106L261.434 167.3V164.72H297.296V167.3L290.588 169.88C287.148 171.084 284.74 172.976 283.364 175.556C281.988 178.136 280.784 181.318 279.752 185.102L236.924 335.774H219.122L180.422 214.514L140.69 335.774H122.888ZM305.268 335V332.42L310.686 330.356C314.298 328.98 316.534 327.346 317.394 325.454C318.426 323.39 318.942 320.638 318.942 317.198V182.522C318.942 179.082 318.426 176.33 317.394 174.266C316.362 172.202 314.126 170.568 310.686 169.364L305.268 167.3V164.72H371.058V167.3L366.414 169.364C363.146 170.568 360.91 172.288 359.706 174.524C358.502 176.588 357.9 179.34 357.9 182.78V329.84H397.632C403.996 329.84 408.64 328.292 411.564 325.196C414.66 322.1 417.584 317.628 420.336 311.78L430.398 290.108H432.978L430.656 335H305.268Z" fill="white"/>
</svg>
